<mxfile host="app.diagrams.net" modified="2020-09-28T13:51:52.509Z" agent="5.0 (Macintosh; Intel Mac OS X 10_14_6) AppleWebKit/537.36 (KHTML, like Gecko) Chrome/85.0.4183.102 Safari/537.36" etag="EfQdp-Ih2WeSryybCTVo" version="13.6.2" type="github" pages="2">
  <diagram id="ypfnsHQGbwsw46qAP1X9" name="Page-1">
    <mxGraphModel dx="771" dy="571" grid="1" gridSize="10" guides="1" tooltips="1" connect="1" arrows="1" fold="1" page="1" pageScale="1" pageWidth="850" pageHeight="1100" math="0" shadow="0">
      <root>
        <mxCell id="0" />
        <mxCell id="1" parent="0" />
        <mxCell id="Qp358tlV5wCzky-saj3u-5" value="" style="edgeStyle=orthogonalEdgeStyle;rounded=0;orthogonalLoop=1;jettySize=auto;html=1;" parent="1" source="Qp358tlV5wCzky-saj3u-1" target="Qp358tlV5wCzky-saj3u-3" edge="1">
          <mxGeometry relative="1" as="geometry" />
        </mxCell>
        <mxCell id="632Un2HrYZAmTkf_AZqY-6" value="" style="edgeStyle=orthogonalEdgeStyle;rounded=0;orthogonalLoop=1;jettySize=auto;html=1;" edge="1" parent="1" source="Qp358tlV5wCzky-saj3u-1" target="632Un2HrYZAmTkf_AZqY-5">
          <mxGeometry relative="1" as="geometry" />
        </mxCell>
        <mxCell id="Qp358tlV5wCzky-saj3u-1" value="NSDL&lt;br&gt;CDSL&lt;br&gt;(Depositories)" style="rounded=0;whiteSpace=wrap;html=1;" parent="1" vertex="1">
          <mxGeometry x="20" y="80" width="120" height="60" as="geometry" />
        </mxCell>
        <mxCell id="Qp358tlV5wCzky-saj3u-6" value="" style="edgeStyle=orthogonalEdgeStyle;rounded=0;orthogonalLoop=1;jettySize=auto;html=1;" parent="1" source="Qp358tlV5wCzky-saj3u-3" target="Qp358tlV5wCzky-saj3u-4" edge="1">
          <mxGeometry relative="1" as="geometry" />
        </mxCell>
        <mxCell id="632Un2HrYZAmTkf_AZqY-4" value="" style="edgeStyle=orthogonalEdgeStyle;rounded=0;orthogonalLoop=1;jettySize=auto;html=1;" edge="1" parent="1" source="Qp358tlV5wCzky-saj3u-3" target="632Un2HrYZAmTkf_AZqY-3">
          <mxGeometry relative="1" as="geometry" />
        </mxCell>
        <mxCell id="Qp358tlV5wCzky-saj3u-3" value="&lt;font style=&quot;font-size: 10px&quot;&gt;Depository Participant&lt;br&gt;(Like stock brokers? Zerodha etc)&lt;br&gt;&lt;/font&gt;" style="rounded=0;whiteSpace=wrap;html=1;" parent="1" vertex="1">
          <mxGeometry x="196" y="80" width="120" height="60" as="geometry" />
        </mxCell>
        <mxCell id="Qp358tlV5wCzky-saj3u-4" value="Us" style="rounded=0;whiteSpace=wrap;html=1;" parent="1" vertex="1">
          <mxGeometry x="370" y="80" width="120" height="60" as="geometry" />
        </mxCell>
        <mxCell id="632Un2HrYZAmTkf_AZqY-3" value="Intermediaries needed to interact with depositories&amp;nbsp;" style="rounded=0;whiteSpace=wrap;html=1;" vertex="1" parent="1">
          <mxGeometry x="196" y="200" width="120" height="60" as="geometry" />
        </mxCell>
        <mxCell id="632Un2HrYZAmTkf_AZqY-5" value="Where our stocks are present - electronically" style="rounded=0;whiteSpace=wrap;html=1;" vertex="1" parent="1">
          <mxGeometry x="20" y="200" width="120" height="60" as="geometry" />
        </mxCell>
        <mxCell id="632Un2HrYZAmTkf_AZqY-8" value="Where are stocks stored and how to interact ?" style="text;html=1;strokeColor=none;fillColor=none;align=left;verticalAlign=middle;whiteSpace=wrap;rounded=0;" vertex="1" parent="1">
          <mxGeometry x="20" y="40" width="360" height="20" as="geometry" />
        </mxCell>
      </root>
    </mxGraphModel>
  </diagram>
  <diagram id="UX798nK_Bkk0Oik0uh7h" name="Page-2">
    <mxGraphModel dx="771" dy="537" grid="1" gridSize="10" guides="1" tooltips="1" connect="1" arrows="1" fold="1" page="1" pageScale="1" pageWidth="850" pageHeight="1100" math="0" shadow="0">
      <root>
        <mxCell id="JayWml7-g7aGI4l34Klm-0" />
        <mxCell id="JayWml7-g7aGI4l34Klm-1" parent="JayWml7-g7aGI4l34Klm-0" />
      </root>
    </mxGraphModel>
  </diagram>
</mxfile>
